<svg id="Слой_2" data-name="Слой 2" xmlns="http://www.w3.org/2000/svg" viewBox="0 0 101 101"><title>Artboard 2 copy 8</title><path d="M73.5,39c0-5.42-11.65-8.25-23.17-8.25S27.17,33.53,27.17,39c0,5.21,10.77,8,21.83,8.24V82.5a1.5,1.5,0,0,0,3,0V47.18C62.94,46.92,73.5,44.11,73.5,39ZM30.17,39c0-1.78,7.12-5.25,20.17-5.25S70.5,37.17,70.5,39s-7.12,5.25-20.17,5.25S30.17,40.74,30.17,39Z"/><path d="M29.35,56H15c-.14-5.44-.86-24-4.14-30.2a1.5,1.5,0,1,0-2.65,1.4C11.62,33.71,12,57.28,12,57.52v24a1.5,1.5,0,0,0,3,0V69H32V81.5a1.5,1.5,0,0,0,3,0V61.65A5.66,5.66,0,0,0,29.35,56ZM15,66V59H29.35A2.65,2.65,0,0,1,32,61.65V66Z"/><path d="M92.2,25.17a1.5,1.5,0,0,0-2,.62C86.89,32,86.17,50.56,86,56H71.65A5.66,5.66,0,0,0,66,61.65V81.5a1.5,1.5,0,0,0,3,0V69H86V81.5a1.5,1.5,0,0,0,3,0v-24c0-.24.38-23.81,3.83-30.32A1.5,1.5,0,0,0,92.2,25.17ZM69,66V61.65A2.65,2.65,0,0,1,71.65,59H86v7Z"/></svg>